<svg xmlns="http://www.w3.org/2000/svg" viewBox="0 0 512 512"><path fill="#83c11f" d="M211.76 3.9C351-20.55 483.68 72.52 508.11 211.75 532.54 351 439.47 483.68 300.24 508.11 161 532.54 28.33 439.47 3.89 300.24-20.54 161 72.53 28.33 211.76 3.89z"/><path fill="#f3f6ee" d="M212.44 7.76c137.1-24.05 267.74 67.58 291.8 204.68 24.05 137.1-67.59 267.74-204.68 291.8-137.1 24.05-267.74-67.59-291.8-204.68-24.05-137.1 67.58-267.74 204.68-291.8z"/><path fill="#83c11f" d="M281.78 402.96c81.53-14.3 136.02-91.99 121.72-173.52-14.3-81.53-92-136.02-173.53-121.72-81.52 14.3-136.02 92-121.71 173.53 14.3 81.52 92 136.02 173.52 121.71zM66.37 316.88a6.96 6.96 0 10-2.4-13.72 6.96 6.96 0 002.4 13.72zm387.77-69.4a6.96 6.96 0 10-2.4-13.72 6.96 6.96 0 002.4 13.72z"/><path d="M49.78 287.82l-1.04-6.6L65 278.66c2.85-.45 4.78-1.21 5.76-2.24a4.48 4.48 0 001.1-4 4.62 4.62 0 00-2.3-3.52c-1.25-.72-3.32-.84-6.17-.4l-16.26 2.58-1-6.32 15.59-2.47c4.85-.77 8.57-.36 11.1 1.2 2.54 1.61 4.1 4.29 4.7 8.03.6 3.78-.07 6.81-1.98 9.17-1.9 2.36-5.31 3.9-10.17 4.67l-15.59 2.47zm-4.5-34.78l.06-6.8 14.68-7.53 6.52-2.83c-1.58.12-3.29.1-5.23.27-1.94.2-3.75.28-5.5.26l-10.38-.1.06-6.3 29.4.27-.06 6.8-14.73 7.54-6.43 2.82c1.63-.12 3.39-.1 5.24-.31 1.85-.16 3.65-.24 5.41-.22l10.42.1-.06 6.31-29.4-.28zm15.79-30.76a17.6 17.6 0 01-6.26-2.2 14.26 14.26 0 01-4.25-3.83 12.63 12.63 0 01-2.23-4.9c-.39-1.76-.44-3.6-.13-5.47.31-1.82.95-3.4 1.95-4.75 1-1.34 2.1-2.39 3.29-3.2l3.43 4.3c-.8.64-1.45 1.26-1.97 1.95a5.82 5.82 0 00-1.03 2.57 6.54 6.54 0 00.14 2.9c.3.97.8 1.83 1.48 2.63.69.8 1.58 1.46 2.68 2.01 1.09.6 2.35 1 3.81 1.24 2.98.5 5.4.27 7.26-.74a6.27 6.27 0 003.36-4.69 6.4 6.4 0 00-.19-3.23 9.86 9.86 0 00-1.46-2.72l4.57-2.93a12 12 0 012.5 4.68c.45 1.67.52 3.42.21 5.25a14.37 14.37 0 01-1.87 5.12 12.4 12.4 0 01-8.7 6.03c-1.95.4-4.15.4-6.6-.02zM84.1 187.9a13.18 13.18 0 01-2.7 4.82 11.4 11.4 0 01-4.18 3.1c-1.6.71-3.43 1.07-5.42 1.09-2.01.06-4.17-.3-6.44-1.05a19.17 19.17 0 01-5.83-2.93 13.55 13.55 0 01-3.67-4.03 12.31 12.31 0 01-1.49-4.94c-.14-1.75.12-3.56.73-5.45.61-1.89 1.47-3.5 2.62-4.88a12.08 12.08 0 014.13-3.08 14.4 14.4 0 015.35-1.16c2-.01 4.11.34 6.38 1.08a20.4 20.4 0 015.85 2.89 14.38 14.38 0 013.74 4.1 11.63 11.63 0 011.58 4.92c.17 1.81-.04 3.64-.65 5.53zm-5.45-1.76c.63-1.93.3-3.7-1.01-5.35-1.27-1.65-3.32-2.93-6.15-3.84-2.8-.9-5.16-1.06-7.11-.46a5.5 5.5 0 00-3.83 3.78 5.5 5.5 0 00.88 5.32c1.23 1.63 3.24 2.9 6.02 3.8 2.84.91 5.25 1.08 7.24.5a5.43 5.43 0 003.96-3.75zM63.96 156.3l3.15-6.02 16.5-.02 7.1.46c-1.46-.61-2.98-1.4-4.78-2.15a47.16 47.16 0 01-5.02-2.27l-9.2-4.81 2.94-5.6 26.04 13.65-3.16 6.03-16.54-.01-7-.41c1.5.63 3.05 1.44 4.8 2.1 1.71.7 3.35 1.46 4.91 2.27l9.23 4.84-2.93 5.59-26.04-13.64zm17.11-30.5l5.02-6.6a19.66 19.66 0 014.37-4.33 12.7 12.7 0 014.9-2.1c1.76-.31 3.54-.2 5.42.38 1.88.58 3.83 1.6 5.83 3.14a19.14 19.14 0 014.61 4.81 11.8 11.8 0 011.34 10.37 18.64 18.64 0 01-2.85 5.25l-5.25 6.89-23.4-17.81zm23.9 8.28c.77-1 1.3-2.01 1.68-3.03.38-1.02.47-2.02.3-3.06a7.23 7.23 0 00-1.26-3.11 15.49 15.49 0 00-3.2-3.17 15.41 15.41 0 00-3.87-2.21 7.37 7.37 0 00-3.3-.36 6.5 6.5 0 00-2.77 1.18 11.7 11.7 0 00-2.43 2.45l-.77 1 14.86 11.31.76-1zm.86-37.93l-4.6 4.78 21.21 20.36 4.6-4.78-21.2-20.36zM121 89.6l-6.18 5.2-3.6-4.29 17.48-14.67 3.6 4.29-6.19 5.19 15.31 18.24-5.11 4.29L121 89.6zm19.6-21.74l-5.5 3.7 16.42 24.4 5.5-3.7-16.42-24.4zm33.06 15.49c-1.77.9-3.54 1.39-5.32 1.48-1.8.15-3.5-.14-5.14-.78a13.57 13.57 0 01-4.6-3.08 19.18 19.18 0 01-3.8-5.3 19.17 19.17 0 01-2.03-6.2 13.5 13.5 0 01.28-5.45 12.3 12.3 0 012.45-4.54 13.93 13.93 0 014.38-3.33c1.77-.9 3.52-1.43 5.32-1.58a12.2 12.2 0 015.09.76c1.63.64 3.15 1.64 4.59 2.98a20.12 20.12 0 013.74 5.29 20.43 20.43 0 012.07 6.18c.25 2 .18 3.85-.28 5.55a11.63 11.63 0 01-2.37 4.59 13.54 13.54 0 01-4.38 3.43zm-2.59-5.11a5.43 5.43 0 003.08-4.5c.28-2.05-.26-4.41-1.6-7.06-1.33-2.62-2.9-4.4-4.7-5.36a5.5 5.5 0 00-5.38-.06 5.5 5.5 0 00-3.14 4.38c-.3 2.01.22 4.33 1.55 6.95 1.34 2.65 2.93 4.48 4.75 5.48a5.43 5.43 0 005.44.17zm10.85-31.46l6.5-2 11.63 11.7 4.67 5.37c-.6-1.47-1.1-3.11-1.84-4.91a47.24 47.24 0 01-1.92-5.17l-3.05-9.9 6.03-1.87 8.65 28.1-6.51 2-11.64-11.74-4.64-5.28c.6 1.52 1.13 3.2 1.88 4.9a55.72 55.72 0 011.85 5.09l3.07 9.96-6.04 1.85-8.64-28.1zm48.05 6.15l-1.05-2.59c-.61-1.41-1.23-2.87-1.87-4.46-.64-1.6-1.22-3.1-1.84-4.57-.14 1.61-.45 3.25-.57 4.91a196.3 196.3 0 01-.54 4.82l-.33 2.78 6.2-.9zm2.08 4.94l-8.88 1.27-.8 7.18-6.69.96 4.92-30.41 7.9-1.14 13.3 27.8-6.97 1-2.78-6.66zm13.05-23.69h6.62l.02 23.8h11.63v5.59l-18.26.01-.02-29.4zm34.1 16.08a17.6 17.6 0 012.38-6.2 14.36 14.36 0 013.96-4.15 12.77 12.77 0 015.08-2.11 15.4 15.4 0 015.69.03c2.04.39 3.73 1.13 5.1 2.17a13.94 13.94 0 013.13 3.3l-4.36 3.35a10.5 10.5 0 00-1.9-2.02 6.97 6.97 0 00-2.96-1.16 7.82 7.82 0 00-3.17.04 7.29 7.29 0 00-2.8 1.4 8.52 8.52 0 00-2.1 2.62 12.03 12.03 0 00-1.32 3.79c-.57 2.97-.34 5.4.72 7.3 1.02 1.9 2.9 3.12 5.6 3.64.57.1 1.16.13 1.76.1a3 3 0 001.5-.4l.95-4.96-4.78-.91 1.01-5.32 10.54 2.02-2.53 13.29c-1.2.78-2.74 1.35-4.55 1.7-1.81.34-3.74.34-5.78-.05a14.96 14.96 0 01-5.26-2.01c-1.6-.95-2.9-2.16-3.94-3.65a12.76 12.76 0 01-2.08-5.22 16.9 16.9 0 01.1-6.59zm36.76-7.21l6.27 2.3-5.68 15.45c-1 2.71-1.28 4.77-.86 6.13a4.48 4.48 0 002.96 2.91c1.57.58 2.96.46 4.2-.28 1.23-.75 2.35-2.5 3.35-5.2l5.68-15.46 6 2.21-5.44 14.82c-1.7 4.61-3.87 7.65-6.47 9.1-2.64 1.43-5.74 1.5-9.3.19-3.6-1.33-5.91-3.38-7.04-6.2-1.13-2.81-.81-6.54.88-11.15l5.45-14.82zm34.22 33.8l.72-2.7c.37-1.5.75-3.04 1.2-4.7.46-1.65.9-3.2 1.3-4.74-1.09 1.2-2.32 2.32-3.43 3.57-1.16 1.26-2.26 2.4-3.33 3.51l-1.94 2.02 5.48 3.04zm-1.32 5.19L341 77.7l-4.96 5.24-5.93-3.27 22.28-21.28 6.99 3.86-6.18 30.18-6.15-3.4 1.8-7zm21.99 3.84l2.7 2.11c1.4 1.08 2.64 1.6 3.86 1.58 1.16-.01 2.18-.6 3.07-1.73.88-1.14 1.14-2.2.79-3.21-.39-1.05-1.25-2.07-2.64-3.15l-2.7-2.1-5.08 6.5zm-2.43 18.23l2.07-11.82-2.88-2.25-6.52 8.36-5.23-4.08 18.08-23.18 8.36 6.51a19.6 19.6 0 013.2 3.08 11 11 0 011.9 3.36c.38 1.2.44 2.46.18 3.74a9.67 9.67 0 01-1.98 4 9.25 9.25 0 01-4.38 3.34 8.9 8.9 0 01-4.96.13l-1.98 13.39-5.86-4.58zm26.14 7.86l1.47-2.36c.8-1.33 1.61-2.69 2.53-4.14.92-1.45 1.8-2.8 2.62-4.16-1.38.83-2.9 1.54-4.31 2.41-1.49.87-2.87 1.64-4.22 2.38l-2.45 1.37 4.36 4.5zm-2.8 4.58l-6.23-6.45-6.28 3.55-4.97-4.96 27.8-13.71 5.56 5.74-14.76 27.04-4.89-5.06 3.78-6.15zm27.14-3.11l3.93 5.57-7.52 14.68-3.65 6.1c1.21-1.02 2.61-2 4.1-3.27a47.25 47.25 0 014.31-3.43l8.48-5.97 3.63 5.16-24.02 16.94-3.93-5.56 7.56-14.72 3.57-6.05c-1.25 1.05-2.68 2.06-4.06 3.31a55.89 55.89 0 01-4.27 3.34l-8.51 6-3.64-5.15 24.02-16.95zm16.53 36.37l-3.6-7.22 5.02-2.5L447 160.53l-5.01 2.49-3.6-7.23-21.31 10.6-2.98-5.97 21.32-10.6zm14.8 18.92L456 186.2l-5.31 1.75-3.7-11.17-5.6 1.85 3.14 9.5-5.27 1.74-3.14-9.5-6.42 2.12 3.83 11.6-5.31 1.76-5.91-17.9 27.92-9.22zm8.37 27.54l3.3 18.1-5.5 1-2.11-11.58-5.81 1.06 1.8 9.85-5.46 1-1.8-9.85-6.65 1.22 2.2 12.02-5.5 1-3.4-18.54 28.93-5.28zM85.87 328.06l2.78 6.07-14.96 6.86c-2.63 1.2-4.28 2.46-4.95 3.7a4.48 4.48 0 00.02 4.16 4.62 4.62 0 003.16 2.77c1.4.35 3.43-.08 6.05-1.29l14.97-6.86 2.67 5.82-14.35 6.58c-4.47 2.05-8.16 2.65-11.02 1.83-2.88-.86-5.1-3.01-6.68-6.46-1.6-3.48-1.78-6.57-.58-9.36 1.2-2.78 4.07-5.19 8.54-7.24l14.35-6.58zm11.02 23.54l3.69 5.73-8.13 14.36-3.9 5.94c1.26-.97 2.7-1.9 4.23-3.1 1.5-1.24 2.98-2.3 4.45-3.25l8.72-5.62 3.42 5.31-24.71 15.93-3.69-5.72 8.16-14.39 3.82-5.9c-1.29 1-2.77 1.96-4.2 3.15a55.61 55.61 0 01-4.4 3.16l-8.76 5.64-3.42-5.3L96.9 351.6zM99 381.9a17.6 17.6 0 015.7-3.39c1.94-.64 3.82-.95 5.66-.8 1.82.1 3.57.56 5.2 1.42 1.6.83 3.05 1.97 4.28 3.4a10.88 10.88 0 012.4 4.54c.38 1.63.49 3.14.34 4.57l-5.49-.1c.02-1.03-.04-1.93-.23-2.77a6.57 6.57 0 00-3.64-4.19c-.93-.4-1.9-.56-2.97-.55a8.44 8.44 0 00-3.25.77 12.04 12.04 0 00-3.4 2.13c-2.3 1.97-3.67 3.97-4.08 6.05a6.27 6.27 0 001.45 5.58 6.4 6.4 0 002.6 1.93c.96.37 1.97.57 3.02.62l-.67 5.39a12 12 0 01-5.2-1.08 12.21 12.21 0 01-4.16-3.2 14.2 14.2 0 01-2.74-4.72 12.4 12.4 0 01.95-10.55 17.8 17.8 0 014.23-5.04z"/><path d="M113.48 419.47a13.18 13.18 0 01-3.27-4.44 11.4 11.4 0 01-1.1-5.1c.01-1.75.44-3.56 1.25-5.38.77-1.86 2-3.67 3.6-5.44a19.18 19.18 0 015.09-4.1c1.7-.93 3.44-1.5 5.19-1.67 1.71-.14 3.38.1 5.1.69 1.66.6 3.2 1.58 4.67 2.91a14.33 14.33 0 013.37 4.41c.7 1.63 1.1 3.27 1.09 5.02a14.38 14.38 0 01-1.16 5.36c-.8 1.82-2 3.6-3.61 5.37a20.38 20.38 0 01-5.04 4.13 14.37 14.37 0 01-5.29 1.71c-1.75.18-3.48 0-5.13-.6a13.26 13.26 0 01-4.76-2.87zm3.85-4.23a5.43 5.43 0 005.3 1.29c2.02-.48 4.03-1.82 6.04-4.02 1.97-2.16 3.09-4.26 3.34-6.28a5.5 5.5 0 00-1.86-5.06 5.5 5.5 0 00-5.2-1.38c-2 .44-3.97 1.75-5.95 3.91-2 2.2-3.15 4.33-3.44 6.39a5.43 5.43 0 001.77 5.15zm27.33-8.17l5.64 3.83-1.87 16.4-1.26 6.99c.78-1.38 1.74-2.8 2.68-4.5.9-1.74 1.84-3.28 2.83-4.74l5.82-8.58 5.23 3.55-16.52 24.33-5.63-3.83 1.89-16.43 1.2-6.92c-.8 1.42-1.78 2.87-2.63 4.53a55.87 55.87 0 01-2.82 4.63l-5.85 8.62-5.22-3.55 16.51-24.32zm21.51 14.37l7.46 3.65c2.02.99 3.72 2.12 5.09 3.44a12.7 12.7 0 013.02 4.4c.64 1.66.88 3.44.67 5.4-.2 1.95-.83 4.06-1.94 6.32a19.21 19.21 0 01-3.83 5.46 11.83 11.83 0 01-9.91 3.33 18.66 18.66 0 01-5.7-1.79l-7.78-3.8 12.92-26.41zm-3.47 25.06c1.13.55 2.22.89 3.3 1.06 1.06.17 2.07.06 3.05-.3a7.29 7.29 0 002.81-1.85c.86-.93 1.72-2.17 2.5-3.75.76-1.58 1.2-2.98 1.4-4.23a7.37 7.37 0 00-.28-3.3 6.51 6.51 0 00-1.7-2.49c-.8-.74-1.74-1.36-2.88-1.91l-1.13-.56-8.2 16.77 1.13.56zm33.1-11.86l-6.2-2.33-10.31 27.54 6.2 2.32 10.31-27.53zm8.02 8.46l-7.79-2.13 1.47-5.4 22.02 6.01-1.47 5.4-7.79-2.13-6.27 22.97-6.44-1.75 6.27-22.97zm24.18-.32l-6.54-1.15-5.1 28.96 6.54 1.15 5.1-28.96zm13.64 31.62a13.18 13.18 0 01-5.33-1.46 11.42 11.42 0 01-4.02-3.3 13.56 13.56 0 01-2.37-5 19.19 19.19 0 01-.55-6.5 19.2 19.2 0 011.43-6.37c.76-1.8 1.76-3.31 3.02-4.54a12.32 12.32 0 014.43-2.63 13.8 13.8 0 015.47-.62c1.98.13 3.76.57 5.38 1.36a12 12 0 013.98 3.26 14.4 14.4 0 012.42 4.91c.5 1.93.67 4.07.5 6.45a20.4 20.4 0 01-1.38 6.37 14.4 14.4 0 01-3.08 4.63 11.63 11.63 0 01-4.39 2.73c-1.71.6-3.53.84-5.51.7zm.39-5.72a5.4 5.4 0 004.94-2.29c1.3-1.62 2.04-3.92 2.24-6.9.2-2.92-.23-5.25-1.28-7a5.5 5.5 0 00-4.6-2.8 5.5 5.5 0 00-4.94 2.15c-1.28 1.58-2.03 3.84-2.23 6.76-.2 2.97.22 5.35 1.28 7.14a5.43 5.43 0 004.59 2.94zm16.35-23.39l6.8-.5 8.73 13.99 3.36 6.26c-.25-1.56-.38-3.27-.7-5.2a47.2 47.2 0 01-.73-5.45l-.77-10.35 6.3-.47 2.18 29.32-6.79.5-8.73-14.03-3.36-6.18c.26 1.61.39 3.37.75 5.2.32 1.82.54 3.62.67 5.37l.78 10.39-6.3.47-2.19-29.32zm41.74 12.05l-1.21-2.51c-.7-1.38-1.41-2.8-2.15-4.35-.74-1.55-1.41-3.02-2.12-4.44-.03 1.62-.24 3.28-.27 4.94-.05 1.72-.14 3.3-.23 4.84l-.16 2.8 6.14-1.28zm2.38 4.8l-8.79 1.83-.34 7.21-6.62 1.38 3.02-30.66 7.81-1.63 15 26.91-6.89 1.44-3.19-6.48zm3.7-23.89l6.29-2.13 7.63 22.56 11.02-3.74 1.8 5.3-17.3 5.86-9.43-27.85zm32.02 4.19a17.6 17.6 0 01-2.04-6.32c-.21-2.03-.06-3.95.48-5.72.5-1.75 1.4-3.4 2.64-4.83a15.4 15.4 0 014.44-3.54 11.96 11.96 0 015.33-1.51c1.68-.03 3.21.18 4.52.6l-1.3 5.34c-.95-.25-1.88-.37-2.75-.37-.9.03-1.9.36-3.02.95-1 .53-1.8 1.22-2.45 2.02a7.3 7.3 0 00-1.3 2.84 8.52 8.52 0 000 3.37c.2 1.22.66 2.46 1.36 3.77 1.42 2.67 3.12 4.42 5.13 5.24 1.98.83 4.22.61 6.64-.68.52-.28 1-.63 1.45-1.03.45-.4.75-.8.92-1.25l-2.38-4.46-4.3 2.3-2.54-4.78 9.47-5.05 6.36 11.94a12.72 12.72 0 01-2.47 4.18c-1.2 1.4-2.7 2.61-4.53 3.59a14.94 14.94 0 01-5.36 1.73c-1.85.27-3.6.13-5.36-.37a12.75 12.75 0 01-4.89-2.75 16.9 16.9 0 01-4.05-5.2zM354 417l5.4-3.93 9.7 13.3c1.7 2.33 3.25 3.7 4.61 4.1 1.36.41 2.72.14 4.07-.84a4.62 4.62 0 002.09-3.64c.06-1.44-.77-3.35-2.47-5.68l-9.7-13.3 5.18-3.77 9.3 12.75c2.9 3.97 4.22 7.47 3.98 10.43-.28 3-1.94 5.6-5 7.84-3.1 2.26-6.1 3.05-9.07 2.42-2.96-.63-5.9-2.96-8.79-6.93L354 417zm41.57-11.53l-2.35-1.5c-1.32-.8-2.67-1.63-4.11-2.56-1.44-.93-2.8-1.83-4.14-2.66.82 1.39 1.52 2.9 2.37 4.33.86 1.5 1.62 2.88 2.35 4.24l1.33 2.46 4.55-4.31zm4.55 2.83l-6.5 6.18 3.5 6.31-4.91 4.65-13.56-27.66 5.79-5.5 26.9 15-5.1 4.85-6.12-3.83zm5.18-18.6l2.16-2.67c1.1-1.36 1.65-2.6 1.65-3.83 0-1.15-.56-2.18-1.68-3.09-1.12-.9-2.18-1.18-3.2-.85-1.05.37-2.08 1.22-3.19 2.59l-2.15 2.66 6.41 5.19zm18.19 2.75l-11.79-2.27-2.3 2.83 8.25 6.67-4.17 5.15-22.87-18.48 6.67-8.24c.99-1.23 2-2.27 3.13-3.16 1.1-.85 2.22-1.45 3.4-1.83a7.46 7.46 0 013.74-.1c1.27.27 2.6.93 3.96 2.04a9.21 9.21 0 013.26 4.43c.47 1.65.51 3.31.05 4.97l13.35 2.2-4.68 5.8z"/><path d="M426.7 366.34l-2.65-.87c-1.47-.45-2.99-.93-4.61-1.47-1.63-.55-3.16-1.08-4.67-1.56 1.14 1.15 2.19 2.45 3.37 3.62 1.2 1.23 2.28 2.4 3.32 3.53l1.9 2.05 3.34-5.3zm5.11 1.62l-4.78 7.59 4.95 5.25-3.81 5.87-19.77-23.6 4.26-6.75 29.78 7.88-3.75 5.96-6.88-2.2zm-14.63-18.95l2.84-6.19 16.48-.87 7.1.08c-1.5-.53-3.05-1.25-4.89-1.9a47.36 47.36 0 01-5.13-2l-9.42-4.33 2.63-5.73 26.72 12.26-2.84 6.19-16.52.85-7.02-.04c1.53.55 3.13 1.28 4.9 1.85 1.76.6 3.44 1.28 5.04 2.01l9.46 4.35-2.63 5.73-26.72-12.26zm17.61-27.72l-2.39 7.7-5.34-1.64 6.74-21.8 5.34 1.65-2.38 7.7 22.75 7.04-1.98 6.38-22.74-7.03zm-.85-16.83l3.26-18.1 5.5 1-2.08 11.57 5.81 1.05 1.78-9.85 5.46.98-1.78 9.86 6.66 1.2 2.16-12.03 5.5 1-3.34 18.54-28.93-5.22zm3.63-20.93l1.12-18.37 5.58.34-.72 11.75 5.9.36.6-9.99 5.55.34-.61 9.99 6.75.41.74-12.2 5.58.34-1.14 18.82-29.35-1.8z"/><path fill="#fff" d="M178.88 269.36l23.22-4.08-10.83-61.74-20.02 3.5-2.69-15.3a97.75 97.75 0 0014.1-6.64 85.66 85.66 0 0010.77-7.78l18.17-3.2 15.24 86.82 20.02-3.51 3.5 20.02-67.96 11.93-3.52-20.02zm122.25-46.6l-3.05-17.33c-.62-3.53-1.16-7.6-1.78-12.17-.63-4.57-.98-8.5-1.4-11.9l-.67.12c-.85 3.1-1.66 6.36-2.64 9.66l-2.95 9.88-10.06 25.7 22.55-3.96zm38.63 12.64l-12.28 2.16 4.49 25.57-23.05 4.05-4.49-25.58-46.27 8.12-2.98-17 27.76-71.11 30.28-5.32 10.95 62.43 12.29-2.16 3.3 18.84zm-154.9 68.08L198.9 301c3.82-.67 7.33-.81 10.56-.35 3.23.45 6.08 1.45 8.64 3.04 2.57 1.68 4.7 3.9 6.39 6.83a32.56 32.56 0 013.7 10.76c.75 4.27.8 8.12.2 11.45a20.32 20.32 0 01-10.41 14.65 32.1 32.1 0 01-9.74 3.29l-14.65 2.57-8.73-49.77zm20.5 38.34a20.39 20.39 0 005.65-1.86 10.04 10.04 0 003.94-3.52c1-1.44 1.72-3.22 2.05-5.4.24-2.17.18-4.75-.34-7.73a26.48 26.48 0 00-2.3-7.3 12.67 12.67 0 00-3.75-4.3 11.18 11.18 0 00-4.87-1.75c-1.85-.22-3.8-.12-5.93.26l-2.14.37 5.55 31.6 2.13-.37zm53.39-21.25l-1.95-4.38a311.9 311.9 0 01-3.46-7.58c-1.18-2.7-2.26-5.26-3.4-7.74-.14 2.78-.59 5.61-.72 8.47-.19 2.94-.42 5.66-.67 8.3l-.41 4.8 10.6-1.87zm3.83 8.38l-15.2 2.66-.97 12.37-11.45 2 6.84-52.5 13.51-2.36 24.3 47.03-11.9 2.1-5.13-11.3zm26.52-10.72l-20.66-29.42 12.06-2.11 6.44 10.67c1.02 1.79 2.01 3.42 3 5.06a585.6 585.6 0 002.97 5.22c.35-2.03 1.09-4.12 1.46-6 .38-1.88.76-3.75 1.12-5.78l2.49-12.24 11.75-2.06-9.4 34.7 3.1 17.7-11.22 1.97-3.1-17.7zm33.94-2.1a24.17 24.17 0 006.6 2.7c2.32.62 4.54.7 6.6.34 2.37-.42 4.04-1.18 5.04-2.22a4.2 4.2 0 001.06-3.81l-.8-1.9-1.72-1.28-2.5-.82s-2.05-.43-3.2-.7l-6.97-1.6c-1.4-.31-2.72-.7-4.01-1.35a14.77 14.77 0 01-3.72-2.33 11.5 11.5 0 01-2.96-3.42 14.16 14.16 0 011.42-16.14 18.63 18.63 0 015.1-4.12 23.17 23.17 0 0124.08 1.36l-4.48 8.1a21.3 21.3 0 00-5.4-2.12c-1.73-.4-3.62-.39-5.6-.04a8.33 8.33 0 00-4.38 1.95 4 4 0 00-1.17 3.67l.95 1.8 1.86 1.17 2.58.8 3.2.78 6.87 1.47c3.27.68 5.93 1.95 8.13 3.76 2.13 1.83 3.47 4.51 4.09 8.02a14.2 14.2 0 01-.2 6.1 14.68 14.68 0 01-2.8 5.52 18.34 18.34 0 01-5.36 4.4 22 22 0 01-7.72 2.7c-3.28.57-6.6.52-10.01-.14a24.69 24.69 0 01-9.64-3.81l5.06-8.84z"/></svg>
